# xmcd CD database file
#
# Track frame offsets:
#	150
#	16836
#	35029
#	52242
#	72472
#	84957
#	103522
#	119272
#	136472
#	151231
#	167658
#	186296
#	202205
#
# Disc length: 2952 seconds
#
# Revision: 0
# Processed by: cddbd v1.5.2PL0 Copyright (c) Steve Scherf et al.
# Submitted via: CDex 1.51
#
DISCID=b70b860d
DTITLE=Dallas Wayne - I'll Take The Fifth
DYEAR=2009
DGENRE=Country
TTITLE0=All Dressed Up (With No Place To Go)
TTITLE1=Crawlin' Is Easy
TTITLE2=I'm Gonna Break Some Promises Tonight
TTITLE3=Not A Dry Eye In The House
TTITLE4=Fixin' To Fall
TTITLE5=I'll Take The Fifth
TTITLE6=If These Walls Could Cry
TTITLE7=Invisible Man
TTITLE8=Straighten Up (And Lie Right)
TTITLE9=In No Time At All
TTITLE10=God Only Knows
TTITLE11=I Never Did Like Planes
TTITLE12=SOMETHING INSIDE
EXTD=YEAR: 2009
EXTT0=
EXTT1=
EXTT2=
EXTT3=
EXTT4=
EXTT5=
EXTT6=
EXTT7=
EXTT8=
EXTT9=
EXTT10=
EXTT11=
EXTT12=
PLAYORDER=
